<?xml version="1.0" encoding="UTF-8" standalone="no"?>
<svg
   width="32"
   height="32"
   viewBox="0 0 8.4666665 8.4666665"
   version="1.1"
   id="svg5"
   xml:space="preserve"
   xmlns="http://www.w3.org/2000/svg"
   xmlns:svg="http://www.w3.org/2000/svg"><defs
     id="defs2" /><g
     id="layer1"><g
       id="g25483"
       transform="matrix(1.5,0,0,1.5,-2.1166671,-1.9321047)"><g
         aria-label="~"
         id="text790"
         style="fill:#eb6f7a;fill-rule:evenodd;stroke-width:0.620001;stroke-linejoin:bevel;paint-order:markers stroke fill;stop-color:#000000"><path
           d="m 2.4705348,3.9891024 q 0.1628204,0 0.2757092,0.065128 0.1150597,0.065128 0.2040682,0.1519657 0.089008,0.084667 0.1715041,0.1519657 0.082496,0.065128 0.1823588,0.065128 0.1345982,0 0.2388032,-0.106376 0.106376,-0.106376 0.1910426,-0.2626836 L 3.9945335,4.1888287 Q 3.9315763,4.3125722 3.8403969,4.4406576 3.7492175,4.566572 3.6146193,4.6534095 3.4821921,4.7380761 3.2911495,4.7380761 3.1391838,4.7380761 3.026295,4.672948 2.9155772,4.6078198 2.8243977,4.5231532 2.7332183,4.4363157 2.6463808,4.3711875 2.5595433,4.3038885 2.4575092,4.3038885 q -0.141111,0 -0.2431451,0.1063759 Q 2.11233,4.5144695 2.0276634,4.670777 L 1.7671508,4.5426917 Q 1.8322789,4.4146063 1.9212874,4.2865209 2.0124668,4.1584356 2.144894,4.073769 2.2773213,3.9891024 2.4705348,3.9891024 Z"
           style="stroke-width:0.62"
           id="path25384" /></g><g
         aria-label="A"
         id="text790-3"
         style="fill:#eb6f7a;fill-rule:evenodd;stroke-width:0.620001;stroke-linejoin:bevel;paint-order:markers stroke fill;stop-color:#000000"
         transform="translate(1.6514582,0.1181265)"><path
           d="M 2.6209492,5.8020414 3.8345037,2.1818735 5.0480582,5.8020414 M 3.8258199,4.6818735 2.6209492,5.8024575 h 2.427109"
           style="fill:#eb6f7a;fill-opacity:1;stroke-width:0.62"
           id="path6953" /></g></g></g></svg>
